Coordinates
version=1
nRows=17
nColumns=34
inDegrees=yes

Units are S.I. units (second, meters, Newtons, ...)
If the header above contains a line with 'inDegrees', this indicates whether rotational values are in degrees (yes) or radians (no).

endheader
time	pelvis_tilt	pelvis_list	pelvis_rotation	pelvis_tx	pelvis_ty	pelvis_tz	hip_flexion_r	hip_adduction_r	hip_rotation_r	knee_angle_r	ankle_angle_r	subtalar_angle_r	mtp_angle_r	hip_flexion_l	hip_adduction_l	hip_rotation_l	knee_angle_l	ankle_angle_l	subtalar_angle_l	mtp_angle_l	lumbar_extension	lumbar_bending	lumbar_rotation	arm_flex_r	arm_add_r	arm_rot_r	elbow_flex_r	pro_sup_r	arm_flex_l	arm_add_l	arm_rot_l	elbow_flex_l	pro_sup_l
      0.00000000	     -2.69926303	      1.80935159	     -1.00455214	      0.44869969	      0.87986029	     -0.02228973	      1.29257813	     -4.37929103	    -10.46546983	      3.36658912	      9.34777038	      3.27186076	      0.00000000	      2.88901854	     -2.38051705	     -9.09351992	      2.82324251	      9.82948703	      4.17437191	      0.00000000	     -1.50099002	     -0.68144612	      1.48652429	     60.07439797	     14.21009543	     63.19735833	    118.19233137	    106.09533925	     44.03027943	      9.23171490	     44.34456391	    119.06589948	    104.68189312
      0.01666670	     -4.25996697	      1.19560201	     -1.66447480	      0.44928380	      0.87688057	     -0.02338390	      3.25473401	     -3.74505405	     -9.45774157	      3.73046624	     10.65815541	      4.36121293	      0.00000000	      4.18232550	     -2.73123710	    -10.09809322	      1.98537322	     10.12034278	      4.55410122	      0.00000000	      0.36678983	     -0.33142737	      0.89724414	     63.27926736	     14.21955427	     62.67600397	    120.20206162	    106.05718571	     46.36443507	      9.30586755	     45.29492907	    119.80493854	    104.29996811
      0.03333330	     -4.84595447	      1.37467665	     -2.34335686	      0.45020983	      0.87912210	     -0.02051408	      3.75665270	     -3.64465465	     -9.44347524	      3.17351343	     10.32038744	      4.11430360	      0.00000000	      4.60332856	     -2.65330407	    -11.49499957	      1.37267863	      9.56407901	      4.62583270	      0.00000000	      1.00038999	     -0.96419783	      1.26099791	     64.02795636	     13.78982979	     63.11810890	    121.83452664	    106.13624695	     47.10630499	      8.70007296	     45.96390448	    119.40753472	    103.63905218
      0.05000000	     -4.80524060	      1.64358455	     -2.75297252	      0.45027575	      0.87834294	     -0.01914311	      3.59505693	     -3.76177680	     -8.92416153	      2.63545841	     10.20341781	      3.64769955	      0.00000000	      4.17008747	     -2.40227170	    -11.97959621	      0.57995944	      9.22209702	      4.56526984	      0.00000000	      1.11337716	     -1.88313127	      2.15587462	     64.39107293	     12.65664489	     63.57787987	    122.74300286	    106.45364490	     48.12816950	      8.98383885	     47.60467143	    117.22433673	     96.54022962
      0.06666670	     -4.85311661	      1.65905388	     -3.02439836	      0.45017307	      0.87735613	     -0.01974152	      3.43143282	     -3.66955146	     -8.58583396	      2.07762085	      9.98454148	      3.66644339	      0.00000000	      3.96125641	     -2.35904646	    -11.88166376	      0.16111983	      9.36458999	      4.12327174	      0.00000000	      1.18653790	     -1.77712162	      2.18189565	     64.68366360	     12.48610573	     65.61718457	    122.36401081	    106.51427195	     48.18575300	      8.76681303	     47.97446510	    116.62554398	     96.02237241
      0.08333330	     -4.88049999	      1.78285633	     -3.15181138	      0.45050377	      0.87832135	     -0.01832125	      3.27330344	     -3.68109493	     -8.12410300	      1.68303058	      9.87446517	      3.83249175	      0.00000000	      3.87668738	     -2.23075672	    -11.60072015	      0.00000000	      9.49752837	      4.05372628	      0.00000000	      1.23452603	     -2.05260418	      2.14935695	     64.49118917	     12.22226558	     66.19165178	    122.17380721	    106.51493268	     47.98896909	      8.68081428	     48.08011502	    116.41525191	     95.85266063
      0.10000000	     -4.92373371	      1.82824870	     -3.21308172	      0.45059072	      0.87715578	     -0.01920142	      3.28917675	     -3.73545585	     -8.09880513	      1.58819024	      9.86266101	      3.81346025	      0.00000000	      3.90249168	     -2.15802253	    -11.60802531	      0.00000000	      9.52333778	      3.99886080	      0.00000000	      1.13057816	     -1.94893372	      2.06866510	     64.43968084	     12.09591975	     66.30432496	    122.12454303	    106.51383999	     47.93438331	      8.68771924	     48.11090542	    116.33675334	     95.81766009
      0.11666670	     -4.93531433	      1.78649975	     -3.08389626	      0.45102443	      0.87723974	     -0.01879768	      3.04001901	     -3.67016078	     -7.52525766	      1.23112073	      9.09330192	      3.13456689	      0.00000000	      3.85194432	     -2.15759768	    -10.86712145	      0.00000000	      9.35083288	      2.90371811	      0.00000000	      1.44918601	     -1.86637497	      2.16493732	     64.59178929	     11.43327442	     68.31705545	    121.22635327	    106.31727034	     47.55892150	      8.90418230	     48.24616278	    114.95681409	     94.50176252
      0.13333330	     -4.96927599	      1.78965214	     -3.08039893	      0.45124371	      0.87818768	     -0.01870014	      3.03640307	     -3.67494918	     -7.51844248	      1.22835620	      9.09150638	      3.13650044	      0.00000000	      3.83051944	     -2.15266973	    -10.86459759	      0.00818357	      9.34856426	      2.90218653	      0.00000000	      1.44287625	     -1.86552943	      2.16214440	     64.58838309	     11.42816468	     68.31721910	    121.22627934	    106.31620353	     47.55186442	      8.90189666	     48.24813277	    114.95835015	     94.49770366
      0.15000000	     -4.93165183	      1.83933648	     -3.02097104	      0.45188628	      0.87812861	     -0.01736432	      2.82827847	     -3.71950229	     -7.09985873	      1.03861182	      8.92640014	      3.30812833	      0.00000000	      3.72561472	     -2.09509402	    -10.65694702	      0.00000000	      9.20034337	      2.87276257	      0.00000000	      1.48663255	     -2.02903272	      2.12816668	     64.41375089	     11.40168760	     68.35946750	    121.25029484	    106.27221651	     47.16342336	      8.83978590	     48.38039293	    115.10735799	     94.33788729
      0.16666670	     -5.07274777	      1.75658344	     -3.01941409	      0.45062265	      0.87915153	     -0.01756924	      2.84635507	     -3.59429583	     -6.44023702	      0.75492701	      7.97108410	      2.28714690	      0.00000000	      3.86948667	     -2.17836441	     -9.71101337	      0.00000000	      8.46963008	      1.38139409	      0.00000000	      1.54936204	     -1.79340801	      1.78263847	     64.57838680	     11.64777364	     68.80577240	    120.65344812	    102.52233560	     46.81188104	      8.68740995	     48.61427998	    116.21579230	     81.32090754
      0.18333330	     -5.08702871	      1.76482103	     -3.01296033	      0.45158625	      0.87852852	     -0.01763495	      2.84315187	     -3.59017772	     -6.43739500	      0.75005330	      7.97334295	      2.28848640	      0.00000000	      3.85953609	     -2.17955501	     -9.71023107	      0.00000000	      8.46687061	      1.38296843	      0.00000000	      1.54465074	     -1.79667069	      1.78910028	     64.57783975	     11.65496454	     68.80312659	    120.65784740	    102.52175990	     46.81218169	      8.68315508	     48.61519557	    116.21688529	     81.32017771
      0.20000000	     -5.14120262	      1.81035940	     -3.01475521	      0.45168338	      0.87773272	     -0.01717010	      2.71609954	     -3.59691051	     -6.28812698	      0.40404244	      7.98872913	      2.38403429	      0.00000000	      3.86771449	     -2.15519042	     -9.60844820	      0.00000000	      8.29126752	      1.48719762	      0.00000000	      1.61161598	     -1.81147560	      1.98942103	     64.64703006	     11.99423019	     68.61334075	    120.88243926	    102.49072354	     46.90317685	      8.70448332	     48.67886322	    116.37149705	     81.28808543
      0.21666670	     -5.14686378	      1.80899710	     -3.01269213	      0.45135211	      0.87770892	     -0.01697166	      2.71348664	     -3.59762303	     -6.28732710	      0.40498627	      7.98815651	      2.38463444	      0.00000000	      3.86408685	     -2.15428815	     -9.60887787	      0.00000000	      8.29081444	      1.48703873	      0.00000000	      1.61250205	     -1.81057685	      1.98914739	     64.64743753	     11.99460603	     68.61250873	    120.88326474	    102.49059281	     46.90357065	      8.70515178	     48.67930987	    116.37224746	     81.28796316
      0.23333330	     -5.14801876	      1.73867443	     -2.99269061	      0.45141522	      0.87827258	     -0.01663758	      2.63268796	     -3.48754915	     -5.99985286	      0.21825882	      7.79410730	      2.58295029	      0.00000000	      3.88696196	     -2.26027737	     -9.59726057	      0.00000000	      7.98273367	      1.53397783	      0.00000000	      1.56905821	     -1.68559968	      1.92198637	     64.82704652	     12.17793433	     68.31553263	    121.19096077	    102.44164470	     47.06329479	      8.93353113	     48.88313426	    116.67849894	     81.24535513
      0.25000000	     -5.13309250	      1.74511326	     -3.00033976	      0.45095778	      0.87929546	     -0.01750168	      2.63093733	     -3.48538216	     -6.00141431	      0.21849415	      7.79226723	      2.58171850	      0.00000000	      3.89532574	     -2.26019672	     -9.59781278	      0.00000000	      7.97965425	      1.53321955	      0.00000000	      1.57080402	     -1.68186556	      1.92025594	     64.82437522	     12.17865061	     68.31513625	    121.19760847	    102.44092138	     47.06284242	      8.93568807	     48.88905990	    116.68438223	     81.24467850
      0.26666670	     -5.11920792	      1.74617173	     -3.00041798	      0.45119314	      0.87870278	     -0.01736008	      2.63482479	     -3.48541830	     -6.00118829	      0.21688772	      7.79155364	      2.58184801	      0.00000000	      3.89905964	     -2.25797390	     -9.59803882	      0.00000000	      7.97853808	      1.53320882	      0.00000000	      1.57097842	     -1.67844336	      1.91834489	     64.82348028	     12.17819329	     68.31531680	    121.19914011	    102.44080890	     47.06266081	      8.93728537	     48.89071535	    116.68541252	     81.24461219
